<svg xmlns="http://www.w3.org/2000/svg" viewBox="0 0 32 32">
  <defs>
    <filter id="g" x="-40%" y="-40%" width="180%" height="180%">
      <feGaussianBlur stdDeviation="1.4" result="b"/>
      <feMerge>
        <feMergeNode in="b"/>
        <feMergeNode in="SourceGraphic"/>
      </feMerge>
    </filter>
  </defs>
  <rect width="32" height="32" rx="7" fill="#0b0d14"/>
  <g fill="none" stroke="#e06c75" stroke-linecap="round" stroke-linejoin="round">
    <path opacity=".28" stroke-width="1.35" d="M16 2v5m0 23v-5M2 16h6m22 0h-6M5 7h5v4m17 14h-5v-4M27 7h-5v4M5 25h5v-4"/>
    <path opacity=".18" stroke-width="3" filter="url(#g)" d="M16 2v5m0 23v-5M2 16h6m22 0h-6"/>
    <rect x="8.5" y="8.5" width="15" height="15" rx="2.6" fill="#0f1520" stroke-width="1.2"/>
    <path d="M16 10.8 21 13v3.7c0 3.3-2.15 5.35-5 6.3-2.85-.95-5-3-5-6.3V13l5-2.2Z" fill="#e06c75" opacity=".16" stroke-width=".95"/>
    <path opacity=".62" stroke-width=".85" d="M13 15h3v-2m-3 5h5v-3m-1 6v-3h3"/>
    <circle cx="16" cy="16" r="2.1" fill="#e06c75" opacity=".75" filter="url(#g)"/>
    <circle cx="16" cy="16" r=".75" fill="#fff" opacity=".8"/>
  </g>
</svg>
